<?xml version="1.0" encoding="UTF-8"?><svg id="Layer_1" xmlns="http://www.w3.org/2000/svg" viewBox="0 0 791.42285 99.21191"><defs><style>.cls-1{fill:#f2ece3;}</style></defs><path class="cls-1" d="m64.1582,72.68066c9.48682,11.25586,20.26025,19.2959,29.9082,20.4209v3.37695h-26.53174l-31.83789-42.28955h-7.55713v20.09961c0,16.07959,1.9292,18.81299,15.27539,18.81299v3.37695H0v-3.37695c13.34619,0,15.27588-2.7334,15.27588-18.81299V22.0293C15.27588,5.94971,13.34619,3.37695,0,3.37695V0h42.4502c22.35107,0,34.57178,12.2207,34.57178,27.1748,0,13.98926-10.45215,25.08447-28.62207,27.01416l15.7583,18.4917Zm-1.44727-45.50586c0-11.57715-6.43213-21.2251-20.42139-21.2251h-14.1499v42.45068h14.1499c13.98926,0,20.42139-9.4873,20.42139-21.22559Z"/><path class="cls-1" d="m128.63525,80.88135c-4.02002,9.48682-4.02002,12.22021,8.68311,12.22021v3.37695h-30.39062v-3.37695c9.80859,0,11.25586-1.92969,16.56201-13.98926l23.63721-54.99268h2.25098l23.63721,54.99268c5.30664,12.05957,7.23584,13.98926,15.7583,13.98926v3.37695h-36.01855v-3.37695c11.57715,0,12.70312-2.7334,8.68311-12.22021l-3.21582-7.39697h-26.37109l-3.21582,7.39697Zm16.40137-37.94824l-10.61279,24.60205h21.22559l-10.61279-24.60205Z"/><path class="cls-1" d="m209.35254,96.47852v-3.21582c10.77344,0,12.70312-2.7334,12.70312-18.81348v-25.72754c0-16.07959-1.92969-18.65234-12.70312-18.65234v-3.21582h36.82275v3.21582c-10.77344,0-12.70312,2.57275-12.70312,18.65234v25.72754c0,16.08008,1.92969,18.81348,12.70312,18.81348v3.21582h-36.82275Z"/><path class="cls-1" d="m292.64355,74.44922c0,16.08008,1.9292,18.81348,12.70264,18.81348v3.21582h-31.35547v-3.21582c10.77344,0,12.70312-2.7334,12.70312-18.81348v-25.72754c0-16.07959-1.92969-18.65234-12.70312-18.65234v-3.21582h24.11963l23.95898,53.70605,23.79785-53.70605h22.51172v3.21582c-10.77344,0-12.86377,2.57275-12.86377,18.65234v25.72754c0,16.08008,2.09033,18.81348,12.86377,18.81348v3.21582h-36.82275v-3.21582c10.77344,0,12.70312-2.7334,12.70312-18.81348v-30.06885l-24.28027,54.83154h-2.25146l-25.08398-56.92188v32.15918Z"/><path class="cls-1" d="m453.27637,80.23779l.80469-3.21582h3.21582l-1.28613,19.45654h-60.13867v-3.21582c10.77344,0,12.70312-2.7334,12.70312-18.81348v-25.72754c0-16.07959-1.92969-18.65234-12.70312-18.65234v-3.21582h56.2793l1.28613,19.29541h-3.37695l-.80371-3.21582c-1.76855-7.39648-3.85938-10.29102-18.49121-10.29102h-10.77344v23.9585h.96484c16.0791,0,17.36523-1.9292,17.36523-12.70264h3.2168v31.35547h-3.2168c0-10.61279-1.28613-12.70312-17.36523-12.70312h-.96484v9.32617c0,16.07959,1.92969,18.65283,12.70215,18.65283h1.92969c14.63281,0,16.72363-2.73389,18.65234-10.2915Z"/><path class="cls-1" d="m534.15234,93.10156c13.3457,0,15.27539-2.7334,15.27539-18.81299V22.0293c0-16.07959-1.92969-18.65234-15.27539-18.65234V0h43.41504v3.37695c-13.3457,0-15.27539,2.57275-15.27539,18.65234v49.84717c0,16.07959,1.92969,18.65283,15.27539,18.65283h19.2959c14.63281,0,16.40137-3.69873,18.49121-12.2207l.80469-3.21631h3.37598l-1.28613,21.38623h-84.09668v-3.37695Z"/><path class="cls-1" d="m698.16309,80.23779l.80469-3.21582h3.21582l-1.28613,19.45654h-60.13867v-3.21582c10.77344,0,12.70312-2.7334,12.70312-18.81348v-25.72754c0-16.07959-1.92969-18.65234-12.70312-18.65234v-3.21582h56.2793l1.28613,19.29541h-3.37695l-.80371-3.21582c-1.76855-7.39648-3.85938-10.29102-18.49121-10.29102h-10.77344v23.9585h.96484c16.0791,0,17.36523-1.9292,17.36523-12.70264h3.2168v31.35547h-3.2168c0-10.61279-1.28613-12.70312-17.36523-12.70312h-.96484v9.32617c0,16.07959,1.92969,18.65283,12.70215,18.65283h1.92969c14.63281,0,16.72363-2.73389,18.65234-10.2915Z"/><path class="cls-1" d="m787.40234,80.23779l.80469-3.21582h3.21582l-1.28613,19.45654h-60.13867v-3.21582c10.77344,0,12.70312-2.7334,12.70312-18.81348v-25.72754c0-16.07959-1.92969-18.65234-12.70312-18.65234v-3.21582h56.2793l1.28613,19.29541h-3.37695l-.80371-3.21582c-1.76855-7.39648-3.85938-10.29102-18.49121-10.29102h-10.77344v23.9585h.96484c16.0791,0,17.36523-1.9292,17.36523-12.70264h3.2168v31.35547h-3.2168c0-10.61279-1.28613-12.70312-17.36523-12.70312h-.96484v9.32617c0,16.07959,1.92871,18.65283,12.70215,18.65283h1.92969c14.63281,0,16.72363-2.73389,18.65234-10.2915Z"/></svg>